<?xml version="1.0" encoding="utf-8"?>
<!-- Generator: Adobe Illustrator 23.0.0, SVG Export Plug-In . SVG Version: 6.00 Build 0)  -->
<svg version="1.1" id="Layer_1" xmlns="http://www.w3.org/2000/svg" xmlns:xlink="http://www.w3.org/1999/xlink" x="0px" y="0px"
	 viewBox="0 0 1000 334.1" style="enable-background:new 0 0 1000 334.1;" xml:space="preserve">
<style type="text/css">
	.st0{fill-rule:evenodd;clip-rule:evenodd;fill:url(#SVGID_1_);}
	.st1{fill-rule:evenodd;clip-rule:evenodd;fill:url(#SVGID_2_);}
	.st2{fill-rule:evenodd;clip-rule:evenodd;fill:url(#SVGID_3_);}
	.st3{fill-rule:evenodd;clip-rule:evenodd;fill:url(#SVGID_4_);}
	.st4{fill-rule:evenodd;clip-rule:evenodd;fill:url(#SVGID_5_);}
	.st5{fill-rule:evenodd;clip-rule:evenodd;fill:url(#SVGID_6_);}
	.st6{fill-rule:evenodd;clip-rule:evenodd;fill:url(#SVGID_7_);}
	.st7{fill-rule:evenodd;clip-rule:evenodd;fill:url(#SVGID_8_);}
	.st8{fill-rule:evenodd;clip-rule:evenodd;fill:url(#SVGID_9_);}
	.st9{fill-rule:evenodd;clip-rule:evenodd;fill:url(#SVGID_10_);}
	.st10{fill-rule:evenodd;clip-rule:evenodd;fill:url(#SVGID_11_);}
	.st11{fill-rule:evenodd;clip-rule:evenodd;fill:url(#SVGID_12_);}
	.st12{fill-rule:evenodd;clip-rule:evenodd;fill:url(#SVGID_13_);}
	.st13{fill-rule:evenodd;clip-rule:evenodd;fill:url(#SVGID_14_);}
	.st14{fill-rule:evenodd;clip-rule:evenodd;fill:url(#SVGID_15_);}
	.st15{fill-rule:evenodd;clip-rule:evenodd;fill:url(#SVGID_16_);}
	.st16{fill-rule:evenodd;clip-rule:evenodd;fill:url(#SVGID_17_);}
</style>
<g>
	
		<radialGradient id="SVGID_1_" cx="409.0625" cy="121.142" r="189.6442" gradientTransform="matrix(-1.346898e-10 1 -1 -1.346898e-10 667.0491 -332.951)" gradientUnits="userSpaceOnUse">
		<stop  offset="0" style="stop-color:#FFFFFF"/>
		<stop  offset="1" style="stop-color:#D6D6D6"/>
	</radialGradient>
	<path class="st0" d="M508.99,65.06c2.74,31.65,13.79,59.06,38.63,80.53c24.89-21.2,36.02-48.77,38.76-80.64
		c118.84,0,237.42,0,356.34,0c0,32.87,0,65.59,0,98.89c-260.88,0-521.59,0-782.7,0c0,74.7,0,28.8,0,103.36c-31.76,0-63.11,0-94.76,0
		c0-107.25,0-94.5,0-202.15C213,65.06,360.72,65.06,508.99,65.06z"/>
	
		<radialGradient id="SVGID_2_" cx="409.0628" cy="121.1418" r="189.6433" gradientTransform="matrix(-1.346898e-10 1 -1 -1.346898e-10 667.0491 -332.951)" gradientUnits="userSpaceOnUse">
		<stop  offset="0" style="stop-color:#FFFFFF"/>
		<stop  offset="1" style="stop-color:#D6D6D6"/>
	</radialGradient>
	<path class="st1" d="M581.81,225.09c0-8.32-0.17-16.64,0.04-24.95c0.33-12.81,5.62-18.01,18.41-18.54
		c19.13-0.79,24.55,4.4,24.57,23.57c0.01,13.14,0.01,26.28,0.01,39.43c0,1,0.01,2-0.01,2.99c-0.23,14.76-4.92,19.72-19.61,20.65
		c-1.98,0.13-3.99-0.01-5.97-0.2c-12.53-1.17-17.03-5.97-17.42-18.5c-0.02-0.5-0.02-1-0.02-1.5
		C581.8,240.4,581.8,232.74,581.81,225.09z M608.25,224.91c0.01,0,0.02,0,0.03,0c0-7.33,0.02-14.66-0.01-21.99
		c-0.01-3.42-0.58-6.46-5.05-6.42c-4.1,0.04-5.03,2.95-5.05,6.09c-0.12,14.82-0.11,29.65-0.01,44.48c0.02,3.16,1.04,6.2,4.96,6.28
		c4.26,0.09,5.12-2.96,5.13-6.45C608.26,239.57,608.25,232.24,608.25,224.91z"/>
	
		<radialGradient id="SVGID_3_" cx="409.0625" cy="121.142" r="189.6441" gradientTransform="matrix(-1.346898e-10 1 -1 -1.346898e-10 667.0491 -332.951)" gradientUnits="userSpaceOnUse">
		<stop  offset="0" style="stop-color:#FFFFFF"/>
		<stop  offset="1" style="stop-color:#D6D6D6"/>
	</radialGradient>
	<path class="st2" d="M810.57,216.09c7.39,0,14.16,0,21.2,0c0,16.84,0,33.39,0,50.37c-5.02-0.43-10.92,3.05-12.8-3.3
		c-4.56,1.77-8.74,4.39-13.17,4.92c-10.33,1.23-16.71-4.57-16.84-14.96c-0.23-18.15-0.23-36.3-0.02-54.44
		c0.12-10.45,4.37-15.31,14.77-16.61c5.03-0.63,10.33-0.38,15.36,0.42c8.05,1.28,11.94,5.73,12.78,13.7
		c0.34,3.26,0.06,6.59,0.06,10.51c-2.84,0-5.44,0-8.04,0c-2.48,0-4.96,0-7.75,0c-0.29-2.19,0.02-4.46-0.93-5.92
		c-1.15-1.78-3.26-3.77-5.13-3.97c-1.27-0.14-3.88,2.51-4.11,4.15c-0.68,4.91-0.62,9.95-0.6,14.93c0.03,10.32,0.17,20.64,0.34,30.96
		c0.05,3.2,0.82,6.26,4.83,6.24c3.88-0.03,4.93-2.96,5.01-6.19c0.13-4.98,0.03-9.96,0.03-15.14c-1.76-0.49-3.3-0.91-4.98-1.37
		C810.57,225.7,810.57,221.1,810.57,216.09z"/>
	
		<radialGradient id="SVGID_4_" cx="409.0626" cy="121.1422" r="189.644" gradientTransform="matrix(-1.346898e-10 1 -1 -1.346898e-10 667.0491 -332.951)" gradientUnits="userSpaceOnUse">
		<stop  offset="0" style="stop-color:#FFFFFF"/>
		<stop  offset="1" style="stop-color:#D6D6D6"/>
	</radialGradient>
	<path class="st3" d="M845.43,183.46c5.16,0,10.09,0,15.59,0c0,10.87,0,21.61,0,32.71c3.96,0,7.37,0,11.37,0c0-10.66,0-21.4,0-32.57
		c5.64,0,10.7,0,16.13,0c0,27.45,0,54.85,0,82.65c-5.16,0-10.2,0-15.92,0c0-11.39,0-22.62,0-34.14c-4.06,0-7.45,0-11.4,0
		c0,11.48,0,22.73,0,34.24c-5.49,0-10.42,0-15.78,0C845.43,238.92,845.43,211.53,845.43,183.46z"/>
	
		<radialGradient id="SVGID_5_" cx="409.0618" cy="121.1424" r="189.6443" gradientTransform="matrix(-1.346898e-10 1 -1 -1.346898e-10 667.0491 -332.951)" gradientUnits="userSpaceOnUse">
		<stop  offset="0" style="stop-color:#FFFFFF"/>
		<stop  offset="1" style="stop-color:#D6D6D6"/>
	</radialGradient>
	<path class="st4" d="M501.05,266.33c-5.54,0-10.95,0-16.74,0c-0.47-3.61-1.1-7.03-1.32-10.47c-0.19-2.92-1.33-4.28-4.33-3.98
		c-1.32,0.13-2.7,0.21-3.99-0.01c-4.08-0.7-5.2,1.57-5.5,5.03c-0.27,3.11-0.78,6.2-1.21,9.45c-5.81,0-11.23,0-17.15,0
		c1.88-11.16,3.67-21.95,5.51-32.74c2.56-15.1,5.28-30.17,7.64-45.29c0.6-3.84,1.87-5.51,5.96-5.2c4.64,0.35,9.34-0.15,13.98,0.24
		c1.42,0.12,3.69,1.76,3.91,3c4.56,25.55,8.88,51.15,13.22,76.75C501.19,264.05,501.05,265.05,501.05,266.33z M476.79,203.46
		c-0.37-0.06-0.75-0.13-1.12-0.19c-1.27,10.91-2.55,21.81-3.86,33.03c3.11,0,5.51,0,8.57,0
		C479.16,225.13,477.97,214.29,476.79,203.46z"/>
	
		<radialGradient id="SVGID_6_" cx="409.0633" cy="121.1406" r="189.6445" gradientTransform="matrix(-1.346898e-10 1 -1 -1.346898e-10 667.0491 -332.951)" gradientUnits="userSpaceOnUse">
		<stop  offset="0" style="stop-color:#FFFFFF"/>
		<stop  offset="1" style="stop-color:#D6D6D6"/>
	</radialGradient>
	<path class="st5" d="M300.24,208.07c-0.31-2.72-0.09-5.24-0.99-7.26c-0.72-1.62-2.85-3.7-4.27-3.63c-1.52,0.07-3.79,2.17-4.24,3.79
		c-1.52,5.49,1.49,9.59,5.33,13.09c4.06,3.7,8.17,7.35,12.35,10.91c10.95,9.3,9.84,24.51,6.09,35.07c-0.22,0.62-0.55,1.25-0.98,1.73
		c-7.47,8.26-17.08,7.06-26.47,5.5c-7.7-1.28-12.08-6.46-12.95-14.45c-0.41-3.77-0.07-7.62-0.07-11.85c5.13,0,10.19,0,15.7,0
		c0.17,2.28,0.2,4.72,0.57,7.11c0.46,2.97,2.22,5.39,5.35,4.36c1.81-0.6,3.88-2.95,4.27-4.84c1.08-5.24-0.82-9.74-4.98-13.31
		c-4.8-4.12-9.62-8.24-14.08-12.71c-7.33-7.34-9.53-20.54-5.4-30.09c3.18-7.36,11.39-10.78,23.69-9.88
		c9.02,0.66,14.53,4.73,16.24,12.81c0.91,4.3,0.82,8.82,1.21,13.67C310.74,208.07,305.68,208.07,300.24,208.07z"/>
	
		<radialGradient id="SVGID_7_" cx="409.0627" cy="121.1424" r="189.6437" gradientTransform="matrix(-1.346898e-10 1 -1 -1.346898e-10 667.0491 -332.951)" gradientUnits="userSpaceOnUse">
		<stop  offset="0" style="stop-color:#FFFFFF"/>
		<stop  offset="1" style="stop-color:#D6D6D6"/>
	</radialGradient>
	<path class="st6" d="M399.88,183.42c6.04,0,11.3,0,17.28,0c2.59,21.3,5.17,42.5,7.75,63.7c0.29-0.01,0.58-0.01,0.88-0.02
		c1.74-14.57,3.47-29.14,5.21-43.71c0.67-5.62,1.2-11.26,2.1-16.84c0.2-1.23,1.64-3.14,2.62-3.21c4.75-0.33,9.55-0.15,14.94-0.15
		c-1.67,10.15-3.19,19.62-4.8,29.08c-2.86,16.72-5.89,33.41-8.57,50.16c-0.55,3.44-1.87,4.39-5.14,4.26
		c-5.8-0.23-11.62-0.06-18.01-0.06C409.38,238.94,404.69,211.49,399.88,183.42z"/>
	
		<radialGradient id="SVGID_8_" cx="409.0623" cy="121.142" r="189.6446" gradientTransform="matrix(-1.346898e-10 1 -1 -1.346898e-10 667.0491 -332.951)" gradientUnits="userSpaceOnUse">
		<stop  offset="0" style="stop-color:#FFFFFF"/>
		<stop  offset="1" style="stop-color:#D6D6D6"/>
	</radialGradient>
	<path class="st7" d="M547.08,106.67c-15.09-0.15-27.18-12.47-27.07-27.57c0.11-14.97,12.51-27.2,27.56-27.2
		c15.08,0,27.62,12.8,27.38,27.95C574.71,94.85,562.27,106.82,547.08,106.67z"/>
	
		<radialGradient id="SVGID_9_" cx="409.062" cy="121.1425" r="189.6442" gradientTransform="matrix(-1.346898e-10 1 -1 -1.346898e-10 667.0491 -332.951)" gradientUnits="userSpaceOnUse">
		<stop  offset="0" style="stop-color:#FFFFFF"/>
		<stop  offset="1" style="stop-color:#D6D6D6"/>
	</radialGradient>
	<path class="st8" d="M227.56,183.47c11.47,0,22.72,0,34.28,0c0,4.99,0,9.72,0,14.99c-5.95,0-11.7,0-17.84,0c0,5.77,0,11,0,16.85
		c5.68,0,11.25,0,17.1,0c0,5.33,0,10.05,0,15.25c-5.74,0-11.17,0-17.04,0c0,7.02,0,13.56,0,20.65c5.81,0,11.57,0,17.71,0
		c0,5.25,0,9.97,0,15.07c-11.28,0-22.53,0-34.22,0C227.56,238.93,227.56,211.54,227.56,183.47z"/>
	
		<radialGradient id="SVGID_10_" cx="409.062" cy="121.1423" r="189.6448" gradientTransform="matrix(-1.346898e-10 1 -1 -1.346898e-10 667.0491 -332.951)" gradientUnits="userSpaceOnUse">
		<stop  offset="0" style="stop-color:#FFFFFF"/>
		<stop  offset="1" style="stop-color:#D6D6D6"/>
	</radialGradient>
	<path class="st9" d="M638.18,183.47c11.46,0,22.7,0,34.35,0c0,4.84,0,9.56,0,14.91c-5.87,0-11.77,0-18,0c0,5.84,0,11.07,0,16.78
		c5.67,0,11.25,0,17.24,0c0,5.19,0,9.92,0,15.37c-5.57,0-11.27,0-17.49,0c0,12.26,0,23.83,0,35.75c-5.59,0-10.65,0-16.1,0
		C638.18,238.75,638.18,211.26,638.18,183.47z"/>
	
		<radialGradient id="SVGID_11_" cx="409.0621" cy="121.141" r="189.6449" gradientTransform="matrix(-1.346898e-10 1 -1 -1.346898e-10 667.0491 -332.951)" gradientUnits="userSpaceOnUse">
		<stop  offset="0" style="stop-color:#FFFFFF"/>
		<stop  offset="1" style="stop-color:#D6D6D6"/>
	</radialGradient>
	<path class="st10" d="M180.29,183.47c11.45,0,22.71,0,34.35,0c0,4.83,0,9.56,0,14.94c-5.95,0-11.84,0-18.06,0
		c0,5.86,0,11.09,0,16.85c5.74,0,11.33,0,17.24,0c0,5.25,0,9.98,0,15.28c-5.68,0-11.26,0-17.38,0c0,12.13,0,23.72,0,35.71
		c-5.6,0-10.66,0-16.15,0C180.29,238.92,180.29,211.53,180.29,183.47z"/>
	
		<radialGradient id="SVGID_12_" cx="409.0619" cy="121.142" r="189.6445" gradientTransform="matrix(-1.346898e-10 1 -1 -1.346898e-10 667.0491 -332.951)" gradientUnits="userSpaceOnUse">
		<stop  offset="0" style="stop-color:#FFFFFF"/>
		<stop  offset="1" style="stop-color:#D6D6D6"/>
	</radialGradient>
	<path class="st11" d="M352.91,198.95c0,22.53,0,44.75,0,67.32c-5.78,0-10.97,0-16.71,0c0-22.5,0-44.73,0-67.4
		c-4.13,0-7.73,0-11.75,0c0-5.3,0-10.16,0-15.36c13.32,0,26.54,0,40.14,0c0,4.89,0,9.63,0,14.92
		C360.89,198.6,357.18,198.76,352.91,198.95z"/>
	
		<radialGradient id="SVGID_13_" cx="409.0623" cy="121.1409" r="189.6437" gradientTransform="matrix(-1.346898e-10 1 -1 -1.346898e-10 667.0491 -332.951)" gradientUnits="userSpaceOnUse">
		<stop  offset="0" style="stop-color:#FFFFFF"/>
		<stop  offset="1" style="stop-color:#D6D6D6"/>
	</radialGradient>
	<path class="st12" d="M938.72,198.72c-4.23,0-7.82,0-12,0c0,22.7,0,44.9,0,67.5c-5.78,0-10.95,0-16.62,0c0-22.39,0-44.6,0-67.42
		c-4.19,0-7.91,0-11.92,0c0-5.34,0-10.07,0-15.63c3.51,0,6.93,0,10.35,0c8.65,0,17.3,0.12,25.95-0.06c3.24-0.07,4.5,0.97,4.29,4.27
		C938.54,190.98,938.72,194.6,938.72,198.72z"/>
	
		<radialGradient id="SVGID_14_" cx="409.062" cy="121.1419" r="189.6438" gradientTransform="matrix(-1.346898e-10 1 -1 -1.346898e-10 667.0491 -332.951)" gradientUnits="userSpaceOnUse">
		<stop  offset="0" style="stop-color:#FFFFFF"/>
		<stop  offset="1" style="stop-color:#D6D6D6"/>
	</radialGradient>
	<path class="st13" d="M730.02,183.64c0,22.46,0,44.71,0,67.49c6.04,0,11.63,0,17.61,0c0,5.24,0,9.96,0,15.11
		c-11.2,0-22.42,0-34.06,0c0-27.38,0-54.75,0-82.6C718.88,183.64,724.21,183.64,730.02,183.64z"/>
	
		<radialGradient id="SVGID_15_" cx="409.0628" cy="121.1424" r="189.6435" gradientTransform="matrix(-1.346898e-10 1 -1 -1.346898e-10 667.0491 -332.951)" gradientUnits="userSpaceOnUse">
		<stop  offset="0" style="stop-color:#FFFFFF"/>
		<stop  offset="1" style="stop-color:#D6D6D6"/>
	</radialGradient>
	<path class="st14" d="M526.95,183.52c0,22.81,0,45.05,0,67.74c5.93,0,11.37,0,17.2,0c0,5.16,0,9.88,0,14.99
		c-11.26,0-22.45,0-33.93,0c0-27.6,0-54.99,0-82.73C515.67,183.52,520.9,183.52,526.95,183.52z"/>
	
		<radialGradient id="SVGID_16_" cx="409.0621" cy="121.1413" r="189.6439" gradientTransform="matrix(-1.346898e-10 1 -1 -1.346898e-10 667.0491 -332.951)" gradientUnits="userSpaceOnUse">
		<stop  offset="0" style="stop-color:#FFFFFF"/>
		<stop  offset="1" style="stop-color:#D6D6D6"/>
	</radialGradient>
	<path class="st15" d="M775.68,266.46c-5.62,0-10.74,0-16.3,0c0-27.57,0-55.04,0-82.91c5.32,0,10.67,0,16.3,0
		C775.68,211.2,775.68,238.56,775.68,266.46z"/>
	
		<radialGradient id="SVGID_17_" cx="409.062" cy="121.1433" r="189.6437" gradientTransform="matrix(-1.346898e-10 1 -1 -1.346898e-10 667.0491 -332.951)" gradientUnits="userSpaceOnUse">
		<stop  offset="0" style="stop-color:#FFFFFF"/>
		<stop  offset="1" style="stop-color:#D6D6D6"/>
	</radialGradient>
	<path class="st16" d="M375.15,183.47c5.3,0,10.39,0,15.93,0c0,27.65,0,55.17,0,82.93c-5.29,0-10.4,0-15.93,0
		C375.15,238.91,375.15,211.51,375.15,183.47z"/>
</g>
</svg>
